<svg width="606" height="432" viewBox="0 0 606 432" fill="none" xmlns="http://www.w3.org/2000/svg">
<path d="M19.104 37.72V39.304H31.104V37.72H19.104ZM18.072 42.376V43.984H32.136V42.376H18.072ZM18.192 46.72V48.328H31.872V46.72H18.192ZM24.144 34.84V43.36H25.92V34.84H24.144ZM27.312 43.744V54.76C27.312 55.12 27.192 55.216 26.784 55.24C26.4 55.264 25.056 55.264 23.568 55.216C23.832 55.696 24.12 56.416 24.192 56.896C26.112 56.896 27.336 56.872 28.08 56.608C28.824 56.344 29.064 55.816 29.064 54.784V43.744H27.312ZM19.656 50.008C20.88 51.256 22.176 53.056 22.704 54.232L24.264 53.272C23.688 52.096 22.344 50.392 21.096 49.144L19.656 50.008ZM11.664 36.424V38.056H15.984V50.56H11.664V52.192H17.664V36.424H11.664ZM11.736 43.408V45.016H16.776V43.408H11.736ZM10.8 36.424V54.16H12.504V36.424H10.8ZM52.632 45.496V47.152H61.92V45.496H52.632ZM45.024 41.08V42.784H51.432V41.08H45.024ZM45.024 45.688V47.392H51.648V45.688H45.024ZM54.84 35.848V37.456H60.48V35.848H54.84ZM61.56 45.496V45.808C60.048 50.992 55.728 54.136 50.784 55.384C51.144 55.792 51.576 56.512 51.768 56.968C57.096 55.408 61.584 52.048 63.384 45.88L62.208 45.424L61.896 45.496H61.56ZM55.2 47.056L53.64 47.488C55.368 52.168 58.68 55.432 63.432 56.896C63.696 56.416 64.2 55.696 64.632 55.336C60.048 54.112 56.76 51.16 55.2 47.056ZM44.184 36.664V56.896H45.888V37.216L44.184 36.664ZM42.192 51.64L42.504 53.416C45.144 52.936 48.84 52.264 52.344 51.616L52.272 49.96C48.576 50.608 44.712 51.256 42.192 51.64ZM54.024 35.848V39.256C54.024 40.864 53.736 42.616 51.552 43.936C51.912 44.176 52.56 44.824 52.8 45.16C55.224 43.648 55.704 41.272 55.704 39.304V35.848H54.024ZM50.856 34.864C49.416 35.68 46.824 36.568 44.544 37.144C44.784 37.504 45.048 38.104 45.144 38.488C47.592 37.936 50.424 37.12 52.392 36.136L50.856 34.864ZM59.472 35.848V41.68C59.472 43.024 59.616 43.432 59.952 43.72C60.288 44.032 60.84 44.152 61.32 44.152C61.584 44.152 62.208 44.152 62.544 44.152C62.928 44.152 63.408 44.08 63.672 43.912C64.008 43.768 64.248 43.504 64.392 43.12C64.512 42.712 64.584 41.656 64.632 40.696C64.176 40.552 63.576 40.288 63.264 39.976C63.24 40.96 63.216 41.728 63.144 42.064C63.096 42.352 63 42.544 62.904 42.592C62.808 42.664 62.592 42.688 62.376 42.688C62.184 42.688 61.848 42.688 61.704 42.688C61.512 42.688 61.392 42.664 61.32 42.592C61.2 42.496 61.176 42.232 61.176 41.776V35.848H59.472ZM106.73 36.472V56.656H108.578V38.296H120.554V56.56H122.45V36.472H106.73ZM107.954 44.8V46.576H121.346V44.8H107.954ZM107.93 53.296V55.096H121.394V53.296H107.93ZM179.022 44.656V46.624H200.982V44.656H179.022ZM256.809 38.296V40.216H274.041V38.296H256.809ZM254.769 52.528V54.544H276.081V52.528H254.769ZM331.836 37.192V38.992H349.98V37.192H331.836ZM333.372 45.04V46.84H348.084V45.04H333.372ZM330.444 53.368V55.192H351.276V53.368H330.444ZM406.504 37.048V56.248H408.304V38.8H424.36V56.056H426.256V37.048H406.504ZM407.464 52.792V54.544H425.392V52.792H407.464ZM417.712 38.2V45.688C417.712 47.152 417.88 47.56 418.312 47.872C418.72 48.184 419.368 48.304 419.92 48.304C420.232 48.304 421.192 48.304 421.552 48.304C422.032 48.304 422.656 48.232 423.016 48.088C423.424 47.896 423.688 47.632 423.832 47.2C424 46.768 424.072 45.64 424.12 44.656C423.664 44.512 423.064 44.2 422.728 43.912C422.704 44.968 422.68 45.76 422.584 46.12C422.536 46.456 422.392 46.624 422.224 46.696C422.08 46.768 421.744 46.792 421.432 46.792C421.096 46.792 420.544 46.792 420.304 46.792C420.04 46.792 419.824 46.744 419.656 46.672C419.512 46.6 419.464 46.336 419.464 45.856V38.2H417.712ZM412.816 38.152C412.648 42.952 412.144 46.552 408.664 48.496C409.072 48.784 409.6 49.384 409.816 49.816C413.68 47.536 414.352 43.552 414.592 38.152H412.816ZM482.659 37.192V38.968H500.803V37.192H482.659ZM481.147 53.824V55.624H502.507V53.824H481.147ZM489.691 37.816C488.875 43.168 487.387 50.608 486.259 54.928H488.275C489.283 50.728 490.747 43.312 491.683 37.816H489.691ZM483.595 44.248V46.024H496.675V54.64H498.523V44.248H483.595ZM556.703 40.528V42.376H577.823V40.528H556.703ZM566.207 34.96V41.464H568.151V34.96H566.207ZM562.271 45.688C560.927 49.384 558.695 53.104 556.271 55.456C556.775 55.744 557.663 56.392 558.023 56.728C560.399 54.184 562.751 50.224 564.287 46.192L562.271 45.688ZM570.095 46.456C572.399 49.672 574.895 54.016 575.879 56.68L577.847 55.816C576.791 53.08 574.175 48.856 571.895 45.712L570.095 46.456Z" fill="white"/>
<path d="M253.112 159.093V180.861H254.888V159.093H253.112ZM246.32 164.877V166.653H261.872V164.877H246.32ZM255.512 165.453L254.048 165.885C255.608 170.469 258.32 175.221 261.128 177.789C261.44 177.309 262.064 176.685 262.472 176.349C259.736 174.117 256.952 169.629 255.512 165.453ZM252.584 165.477C251.144 169.773 248.36 174.261 245.456 176.517C245.888 176.829 246.488 177.477 246.824 177.909C249.776 175.341 252.56 170.709 254.12 165.957L252.584 165.477ZM246.032 158.925C244.568 162.693 242.12 166.293 239.48 168.597C239.792 169.029 240.368 169.989 240.56 170.421C243.44 167.757 246.128 163.677 247.808 159.477L246.032 158.925ZM243.392 165.309V180.789H245.168V163.557V163.533L243.392 165.309ZM279.104 160.533C280.496 162.909 283.04 165.501 285.44 167.061C285.704 166.557 286.088 165.885 286.424 165.453C284.048 164.133 281.456 161.493 279.872 158.805H278.168C276.992 161.301 274.496 164.157 271.904 165.765C272.216 166.149 272.648 166.797 272.84 167.229C275.456 165.549 277.832 162.837 279.104 160.533ZM279.584 164.949C278.312 166.653 275.936 168.405 273.872 169.389C274.28 169.677 274.76 170.157 275.048 170.493C277.28 169.365 279.656 167.517 281.168 165.597L279.584 164.949ZM281.6 168.501C279.992 170.709 276.896 172.773 274.016 173.901C274.448 174.261 274.904 174.765 275.168 175.173C278.24 173.829 281.336 171.645 283.208 169.149L281.6 168.501ZM283.784 172.101C281.768 175.557 277.736 178.077 272.888 179.373C273.32 179.805 273.776 180.429 274.016 180.909C279.056 179.397 283.16 176.613 285.416 172.797L283.784 172.101ZM265.04 166.029V167.469H272.072V166.029H265.04ZM265.112 159.621V161.061H271.976V159.621H265.112ZM265.04 169.245V170.685H272.072V169.245H265.04ZM263.912 162.765V164.253H272.816V162.765H263.912ZM265.832 172.485V173.973H270.488V177.981H265.832V179.493H272.072V172.485H265.832ZM265.016 172.485V180.597H266.576V172.485H265.016Z" fill="white"/>
<path d="M114.379 177.484C113.067 177.484 111.835 177.236 110.683 176.74C109.531 176.26 108.515 175.588 107.635 174.724C106.771 173.844 106.091 172.828 105.595 171.676C105.115 170.524 104.875 169.292 104.875 167.98C104.875 166.652 105.115 165.42 105.595 164.284C106.091 163.132 106.771 162.124 107.635 161.26C108.515 160.38 109.531 159.7 110.683 159.22C111.835 158.724 113.067 158.476 114.379 158.476C115.707 158.476 116.939 158.724 118.075 159.22C119.227 159.7 120.235 160.38 121.099 161.26C121.979 162.124 122.659 163.132 123.139 164.284C123.635 165.42 123.883 166.652 123.883 167.98C123.883 169.292 123.635 170.524 123.139 171.676C122.659 172.828 121.979 173.844 121.099 174.724C120.235 175.588 119.227 176.26 118.075 176.74C116.939 177.236 115.707 177.484 114.379 177.484ZM114.379 176.476C115.563 176.476 116.667 176.26 117.691 175.828C118.715 175.38 119.611 174.772 120.379 174.004C121.163 173.22 121.771 172.316 122.203 171.292C122.651 170.268 122.875 169.164 122.875 167.98C122.875 166.796 122.651 165.692 122.203 164.668C121.771 163.644 121.163 162.748 120.379 161.98C119.611 161.196 118.715 160.588 117.691 160.156C116.667 159.708 115.563 159.484 114.379 159.484C113.195 159.484 112.091 159.708 111.067 160.156C110.043 160.588 109.139 161.196 108.355 161.98C107.587 162.748 106.979 163.644 106.531 164.668C106.099 165.692 105.883 166.796 105.883 167.98C105.883 169.164 106.099 170.268 106.531 171.292C106.979 172.316 107.587 173.22 108.355 174.004C109.139 174.772 110.043 175.38 111.067 175.828C112.091 176.26 113.195 176.476 114.379 176.476Z" fill="white"/>
<path d="M114.379 326.905C113.067 326.905 111.835 326.657 110.683 326.161C109.531 325.681 108.515 325.009 107.635 324.145C106.771 323.265 106.091 322.249 105.595 321.097C105.115 319.945 104.875 318.713 104.875 317.401C104.875 316.073 105.115 314.841 105.595 313.705C106.091 312.553 106.771 311.545 107.635 310.681C108.515 309.801 109.531 309.121 110.683 308.641C111.835 308.145 113.067 307.897 114.379 307.897C115.707 307.897 116.939 308.145 118.075 308.641C119.227 309.121 120.235 309.801 121.099 310.681C121.979 311.545 122.659 312.553 123.139 313.705C123.635 314.841 123.883 316.073 123.883 317.401C123.883 318.713 123.635 319.945 123.139 321.097C122.659 322.249 121.979 323.265 121.099 324.145C120.235 325.009 119.227 325.681 118.075 326.161C116.939 326.657 115.707 326.905 114.379 326.905ZM114.379 325.897C115.563 325.897 116.667 325.681 117.691 325.249C118.715 324.801 119.611 324.193 120.379 323.425C121.163 322.641 121.771 321.737 122.203 320.713C122.651 319.689 122.875 318.585 122.875 317.401C122.875 316.217 122.651 315.113 122.203 314.089C121.771 313.065 121.163 312.169 120.379 311.401C119.611 310.617 118.715 310.009 117.691 309.577C116.667 309.129 115.563 308.905 114.379 308.905C113.195 308.905 112.091 309.129 111.067 309.577C110.043 310.009 109.139 310.617 108.355 311.401C107.587 312.169 106.979 313.065 106.531 314.089C106.099 315.113 105.883 316.217 105.883 317.401C105.883 318.585 106.099 319.689 106.531 320.713C106.979 321.737 107.587 322.641 108.355 323.425C109.139 324.193 110.043 324.801 111.067 325.249C112.091 325.681 113.195 325.897 114.379 325.897Z" fill="white"/>
<path d="M189.761 177.484C188.449 177.484 187.217 177.236 186.065 176.74C184.913 176.26 183.897 175.588 183.017 174.724C182.153 173.844 181.473 172.828 180.977 171.676C180.497 170.524 180.257 169.292 180.257 167.98C180.257 166.652 180.497 165.42 180.977 164.284C181.473 163.132 182.153 162.124 183.017 161.26C183.897 160.38 184.913 159.7 186.065 159.22C187.217 158.724 188.449 158.476 189.761 158.476C191.089 158.476 192.321 158.724 193.457 159.22C194.609 159.7 195.617 160.38 196.481 161.26C197.361 162.124 198.041 163.132 198.521 164.284C199.017 165.42 199.265 166.652 199.265 167.98C199.265 169.292 199.017 170.524 198.521 171.676C198.041 172.828 197.361 173.844 196.481 174.724C195.617 175.588 194.609 176.26 193.457 176.74C192.321 177.236 191.089 177.484 189.761 177.484ZM189.761 176.476C190.945 176.476 192.049 176.26 193.073 175.828C194.097 175.38 194.993 174.772 195.761 174.004C196.545 173.22 197.153 172.316 197.585 171.292C198.033 170.268 198.257 169.164 198.257 167.98C198.257 166.796 198.033 165.692 197.585 164.668C197.153 163.644 196.545 162.748 195.761 161.98C194.993 161.196 194.097 160.588 193.073 160.156C192.049 159.708 190.945 159.484 189.761 159.484C188.577 159.484 187.473 159.708 186.449 160.156C185.425 160.588 184.521 161.196 183.737 161.98C182.969 162.748 182.361 163.644 181.913 164.668C181.481 165.692 181.265 166.796 181.265 167.98C181.265 169.164 181.481 170.268 181.913 171.292C182.361 172.316 182.969 173.22 183.737 174.004C184.521 174.772 185.425 175.38 186.449 175.828C187.473 176.26 188.577 176.476 189.761 176.476Z" fill="white"/>
<path d="M189.761 326.905C188.449 326.905 187.217 326.657 186.065 326.161C184.913 325.681 183.897 325.009 183.017 324.145C182.153 323.265 181.473 322.249 180.977 321.097C180.497 319.945 180.257 318.713 180.257 317.401C180.257 316.073 180.497 314.841 180.977 313.705C181.473 312.553 182.153 311.545 183.017 310.681C183.897 309.801 184.913 309.121 186.065 308.641C187.217 308.145 188.449 307.897 189.761 307.897C191.089 307.897 192.321 308.145 193.457 308.641C194.609 309.121 195.617 309.801 196.481 310.681C197.361 311.545 198.041 312.553 198.521 313.705C199.017 314.841 199.265 316.073 199.265 317.401C199.265 318.713 199.017 319.945 198.521 321.097C198.041 322.249 197.361 323.265 196.481 324.145C195.617 325.009 194.609 325.681 193.457 326.161C192.321 326.657 191.089 326.905 189.761 326.905ZM189.761 325.897C190.945 325.897 192.049 325.681 193.073 325.249C194.097 324.801 194.993 324.193 195.761 323.425C196.545 322.641 197.153 321.737 197.585 320.713C198.033 319.689 198.257 318.585 198.257 317.401C198.257 316.217 198.033 315.113 197.585 314.089C197.153 313.065 196.545 312.169 195.761 311.401C194.993 310.617 194.097 310.009 193.073 309.577C192.049 309.129 190.945 308.905 189.761 308.905C188.577 308.905 187.473 309.129 186.449 309.577C185.425 310.009 184.521 310.617 183.737 311.401C182.969 312.169 182.361 313.065 181.913 314.089C181.481 315.113 181.265 316.217 181.265 317.401C181.265 318.585 181.481 319.689 181.913 320.713C182.361 321.737 182.969 322.641 183.737 323.425C184.521 324.193 185.425 324.801 186.449 325.249C187.473 325.681 188.577 325.897 189.761 325.897Z" fill="white"/>
<path d="M340.525 177.484C339.213 177.484 337.981 177.236 336.829 176.74C335.677 176.26 334.661 175.588 333.781 174.724C332.917 173.844 332.237 172.828 331.741 171.676C331.261 170.524 331.021 169.292 331.021 167.98C331.021 166.652 331.261 165.42 331.741 164.284C332.237 163.132 332.917 162.124 333.781 161.26C334.661 160.38 335.677 159.7 336.829 159.22C337.981 158.724 339.213 158.476 340.525 158.476C341.853 158.476 343.085 158.724 344.221 159.22C345.373 159.7 346.381 160.38 347.245 161.26C348.125 162.124 348.805 163.132 349.285 164.284C349.781 165.42 350.029 166.652 350.029 167.98C350.029 169.292 349.781 170.524 349.285 171.676C348.805 172.828 348.125 173.844 347.245 174.724C346.381 175.588 345.373 176.26 344.221 176.74C343.085 177.236 341.853 177.484 340.525 177.484ZM340.525 176.476C341.709 176.476 342.813 176.26 343.837 175.828C344.861 175.38 345.757 174.772 346.525 174.004C347.309 173.22 347.917 172.316 348.349 171.292C348.797 170.268 349.021 169.164 349.021 167.98C349.021 166.796 348.797 165.692 348.349 164.668C347.917 163.644 347.309 162.748 346.525 161.98C345.757 161.196 344.861 160.588 343.837 160.156C342.813 159.708 341.709 159.484 340.525 159.484C339.341 159.484 338.237 159.708 337.213 160.156C336.189 160.588 335.285 161.196 334.501 161.98C333.733 162.748 333.125 163.644 332.677 164.668C332.245 165.692 332.029 166.796 332.029 167.98C332.029 169.164 332.245 170.268 332.677 171.292C333.125 172.316 333.733 173.22 334.501 174.004C335.285 174.772 336.189 175.38 337.213 175.828C338.237 176.26 339.341 176.476 340.525 176.476Z" fill="white"/>
<path d="M340.525 326.905C339.213 326.905 337.981 326.657 336.829 326.161C335.677 325.681 334.661 325.009 333.781 324.145C332.917 323.265 332.237 322.249 331.741 321.097C331.261 319.945 331.021 318.713 331.021 317.401C331.021 316.073 331.261 314.841 331.741 313.705C332.237 312.553 332.917 311.545 333.781 310.681C334.661 309.801 335.677 309.121 336.829 308.641C337.981 308.145 339.213 307.897 340.525 307.897C341.853 307.897 343.085 308.145 344.221 308.641C345.373 309.121 346.381 309.801 347.245 310.681C348.125 311.545 348.805 312.553 349.285 313.705C349.781 314.841 350.029 316.073 350.029 317.401C350.029 318.713 349.781 319.945 349.285 321.097C348.805 322.249 348.125 323.265 347.245 324.145C346.381 325.009 345.373 325.681 344.221 326.161C343.085 326.657 341.853 326.905 340.525 326.905ZM340.525 325.897C341.709 325.897 342.813 325.681 343.837 325.249C344.861 324.801 345.757 324.193 346.525 323.425C347.309 322.641 347.917 321.737 348.349 320.713C348.797 319.689 349.021 318.585 349.021 317.401C349.021 316.217 348.797 315.113 348.349 314.089C347.917 313.065 347.309 312.169 346.525 311.401C345.757 310.617 344.861 310.009 343.837 309.577C342.813 309.129 341.709 308.905 340.525 308.905C339.341 308.905 338.237 309.129 337.213 309.577C336.189 310.009 335.285 310.617 334.501 311.401C333.733 312.169 333.125 313.065 332.677 314.089C332.245 315.113 332.029 316.217 332.029 317.401C332.029 318.585 332.245 319.689 332.677 320.713C333.125 321.737 333.733 322.641 334.501 323.425C335.285 324.193 336.189 324.801 337.213 325.249C338.237 325.681 339.341 325.897 340.525 325.897Z" fill="white"/>
<path d="M415.907 177.484C414.595 177.484 413.363 177.236 412.211 176.74C411.059 176.26 410.043 175.588 409.163 174.724C408.299 173.844 407.619 172.828 407.123 171.676C406.643 170.524 406.403 169.292 406.403 167.98C406.403 166.652 406.643 165.42 407.123 164.284C407.619 163.132 408.299 162.124 409.163 161.26C410.043 160.38 411.059 159.7 412.211 159.22C413.363 158.724 414.595 158.476 415.907 158.476C417.235 158.476 418.467 158.724 419.603 159.22C420.755 159.7 421.763 160.38 422.627 161.26C423.507 162.124 424.187 163.132 424.667 164.284C425.163 165.42 425.411 166.652 425.411 167.98C425.411 169.292 425.163 170.524 424.667 171.676C424.187 172.828 423.507 173.844 422.627 174.724C421.763 175.588 420.755 176.26 419.603 176.74C418.467 177.236 417.235 177.484 415.907 177.484ZM415.907 176.476C417.091 176.476 418.195 176.26 419.219 175.828C420.243 175.38 421.139 174.772 421.907 174.004C422.691 173.22 423.299 172.316 423.731 171.292C424.179 170.268 424.403 169.164 424.403 167.98C424.403 166.796 424.179 165.692 423.731 164.668C423.299 163.644 422.691 162.748 421.907 161.98C421.139 161.196 420.243 160.588 419.219 160.156C418.195 159.708 417.091 159.484 415.907 159.484C414.723 159.484 413.619 159.708 412.595 160.156C411.571 160.588 410.667 161.196 409.883 161.98C409.115 162.748 408.507 163.644 408.059 164.668C407.627 165.692 407.411 166.796 407.411 167.98C407.411 169.164 407.627 170.268 408.059 171.292C408.507 172.316 409.115 173.22 409.883 174.004C410.667 174.772 411.571 175.38 412.595 175.828C413.619 176.26 414.723 176.476 415.907 176.476Z" fill="white"/>
<path d="M415.907 326.905C414.595 326.905 413.363 326.657 412.211 326.161C411.059 325.681 410.043 325.009 409.163 324.145C408.299 323.265 407.619 322.249 407.123 321.097C406.643 319.945 406.403 318.713 406.403 317.401C406.403 316.073 406.643 314.841 407.123 313.705C407.619 312.553 408.299 311.545 409.163 310.681C410.043 309.801 411.059 309.121 412.211 308.641C413.363 308.145 414.595 307.897 415.907 307.897C417.235 307.897 418.467 308.145 419.603 308.641C420.755 309.121 421.763 309.801 422.627 310.681C423.507 311.545 424.187 312.553 424.667 313.705C425.163 314.841 425.411 316.073 425.411 317.401C425.411 318.713 425.163 319.945 424.667 321.097C424.187 322.249 423.507 323.265 422.627 324.145C421.763 325.009 420.755 325.681 419.603 326.161C418.467 326.657 417.235 326.905 415.907 326.905ZM415.907 325.897C417.091 325.897 418.195 325.681 419.219 325.249C420.243 324.801 421.139 324.193 421.907 323.425C422.691 322.641 423.299 321.737 423.731 320.713C424.179 319.689 424.403 318.585 424.403 317.401C424.403 316.217 424.179 315.113 423.731 314.089C423.299 313.065 422.691 312.169 421.907 311.401C421.139 310.617 420.243 310.009 419.219 309.577C418.195 309.129 417.091 308.905 415.907 308.905C414.723 308.905 413.619 309.129 412.595 309.577C411.571 310.009 410.667 310.617 409.883 311.401C409.115 312.169 408.507 313.065 408.059 314.089C407.627 315.113 407.411 316.217 407.411 317.401C407.411 318.585 407.627 319.689 408.059 320.713C408.507 321.737 409.115 322.641 409.883 323.425C410.667 324.193 411.571 324.801 412.595 325.249C413.619 325.681 414.723 325.897 415.907 325.897Z" fill="white"/>
<path d="M491.29 177.484C489.978 177.484 488.746 177.236 487.594 176.74C486.442 176.26 485.426 175.588 484.546 174.724C483.682 173.844 483.002 172.828 482.506 171.676C482.026 170.524 481.786 169.292 481.786 167.98C481.786 166.652 482.026 165.42 482.506 164.284C483.002 163.132 483.682 162.124 484.546 161.26C485.426 160.38 486.442 159.7 487.594 159.22C488.746 158.724 489.978 158.476 491.29 158.476C492.618 158.476 493.85 158.724 494.986 159.22C496.138 159.7 497.146 160.38 498.01 161.26C498.89 162.124 499.57 163.132 500.05 164.284C500.546 165.42 500.794 166.652 500.794 167.98C500.794 169.292 500.546 170.524 500.05 171.676C499.57 172.828 498.89 173.844 498.01 174.724C497.146 175.588 496.138 176.26 494.986 176.74C493.85 177.236 492.618 177.484 491.29 177.484ZM491.29 176.476C492.474 176.476 493.578 176.26 494.602 175.828C495.626 175.38 496.522 174.772 497.29 174.004C498.074 173.22 498.682 172.316 499.114 171.292C499.562 170.268 499.786 169.164 499.786 167.98C499.786 166.796 499.562 165.692 499.114 164.668C498.682 163.644 498.074 162.748 497.29 161.98C496.522 161.196 495.626 160.588 494.602 160.156C493.578 159.708 492.474 159.484 491.29 159.484C490.106 159.484 489.002 159.708 487.978 160.156C486.954 160.588 486.05 161.196 485.266 161.98C484.498 162.748 483.89 163.644 483.442 164.668C483.01 165.692 482.794 166.796 482.794 167.98C482.794 169.164 483.01 170.268 483.442 171.292C483.89 172.316 484.498 173.22 485.266 174.004C486.05 174.772 486.954 175.38 487.978 175.828C489.002 176.26 490.106 176.476 491.29 176.476Z" fill="white"/>
<path d="M491.29 326.905C489.978 326.905 488.746 326.657 487.594 326.161C486.442 325.681 485.426 325.009 484.546 324.145C483.682 323.265 483.002 322.249 482.506 321.097C482.026 319.945 481.786 318.713 481.786 317.401C481.786 316.073 482.026 314.841 482.506 313.705C483.002 312.553 483.682 311.545 484.546 310.681C485.426 309.801 486.442 309.121 487.594 308.641C488.746 308.145 489.978 307.897 491.29 307.897C492.618 307.897 493.85 308.145 494.986 308.641C496.138 309.121 497.146 309.801 498.01 310.681C498.89 311.545 499.57 312.553 500.05 313.705C500.546 314.841 500.794 316.073 500.794 317.401C500.794 318.713 500.546 319.945 500.05 321.097C499.57 322.249 498.89 323.265 498.01 324.145C497.146 325.009 496.138 325.681 494.986 326.161C493.85 326.657 492.618 326.905 491.29 326.905ZM491.29 325.897C492.474 325.897 493.578 325.681 494.602 325.249C495.626 324.801 496.522 324.193 497.29 323.425C498.074 322.641 498.682 321.737 499.114 320.713C499.562 319.689 499.786 318.585 499.786 317.401C499.786 316.217 499.562 315.113 499.114 314.089C498.682 313.065 498.074 312.169 497.29 311.401C496.522 310.617 495.626 310.009 494.602 309.577C493.578 309.129 492.474 308.905 491.29 308.905C490.106 308.905 489.002 309.129 487.978 309.577C486.954 310.009 486.05 310.617 485.266 311.401C484.498 312.169 483.89 313.065 483.442 314.089C483.01 315.113 482.794 316.217 482.794 317.401C482.794 318.585 483.01 319.689 483.442 320.713C483.89 321.737 484.498 322.641 485.266 323.425C486.05 324.193 486.954 324.801 487.978 325.249C489.002 325.681 490.106 325.897 491.29 325.897Z" fill="white"/>
<path d="M566.672 177.484C565.36 177.484 564.128 177.236 562.976 176.74C561.824 176.26 560.808 175.588 559.928 174.724C559.064 173.844 558.384 172.828 557.888 171.676C557.408 170.524 557.168 169.292 557.168 167.98C557.168 166.652 557.408 165.42 557.888 164.284C558.384 163.132 559.064 162.124 559.928 161.26C560.808 160.38 561.824 159.7 562.976 159.22C564.128 158.724 565.36 158.476 566.672 158.476C568 158.476 569.232 158.724 570.368 159.22C571.52 159.7 572.528 160.38 573.392 161.26C574.272 162.124 574.952 163.132 575.432 164.284C575.928 165.42 576.176 166.652 576.176 167.98C576.176 169.292 575.928 170.524 575.432 171.676C574.952 172.828 574.272 173.844 573.392 174.724C572.528 175.588 571.52 176.26 570.368 176.74C569.232 177.236 568 177.484 566.672 177.484ZM566.672 176.476C567.856 176.476 568.96 176.26 569.984 175.828C571.008 175.38 571.904 174.772 572.672 174.004C573.456 173.22 574.064 172.316 574.496 171.292C574.944 170.268 575.168 169.164 575.168 167.98C575.168 166.796 574.944 165.692 574.496 164.668C574.064 163.644 573.456 162.748 572.672 161.98C571.904 161.196 571.008 160.588 569.984 160.156C568.96 159.708 567.856 159.484 566.672 159.484C565.488 159.484 564.384 159.708 563.36 160.156C562.336 160.588 561.432 161.196 560.648 161.98C559.88 162.748 559.272 163.644 558.824 164.668C558.392 165.692 558.176 166.796 558.176 167.98C558.176 169.164 558.392 170.268 558.824 171.292C559.272 172.316 559.88 173.22 560.648 174.004C561.432 174.772 562.336 175.38 563.36 175.828C564.384 176.26 565.488 176.476 566.672 176.476Z" fill="white"/>
<path d="M566.672 326.905C565.36 326.905 564.128 326.657 562.976 326.161C561.824 325.681 560.808 325.009 559.928 324.145C559.064 323.265 558.384 322.249 557.888 321.097C557.408 319.945 557.168 318.713 557.168 317.401C557.168 316.073 557.408 314.841 557.888 313.705C558.384 312.553 559.064 311.545 559.928 310.681C560.808 309.801 561.824 309.121 562.976 308.641C564.128 308.145 565.36 307.897 566.672 307.897C568 307.897 569.232 308.145 570.368 308.641C571.52 309.121 572.528 309.801 573.392 310.681C574.272 311.545 574.952 312.553 575.432 313.705C575.928 314.841 576.176 316.073 576.176 317.401C576.176 318.713 575.928 319.945 575.432 321.097C574.952 322.249 574.272 323.265 573.392 324.145C572.528 325.009 571.52 325.681 570.368 326.161C569.232 326.657 568 326.905 566.672 326.905ZM566.672 325.897C567.856 325.897 568.96 325.681 569.984 325.249C571.008 324.801 571.904 324.193 572.672 323.425C573.456 322.641 574.064 321.737 574.496 320.713C574.944 319.689 575.168 318.585 575.168 317.401C575.168 316.217 574.944 315.113 574.496 314.089C574.064 313.065 573.456 312.169 572.672 311.401C571.904 310.617 571.008 310.009 569.984 309.577C568.96 309.129 567.856 308.905 566.672 308.905C565.488 308.905 564.384 309.129 563.36 309.577C562.336 310.009 561.432 310.617 560.648 311.401C559.88 312.169 559.272 313.065 558.824 314.089C558.392 315.113 558.176 316.217 558.176 317.401C558.176 318.585 558.392 319.689 558.824 320.713C559.272 321.737 559.88 322.641 560.648 323.425C561.432 324.193 562.336 324.801 563.36 325.249C564.384 325.681 565.488 325.897 566.672 325.897Z" fill="white"/>
<path d="M253.112 307.139V328.907H254.888V307.139H253.112ZM246.32 312.923V314.699H261.872V312.923H246.32ZM255.512 313.499L254.048 313.931C255.608 318.515 258.32 323.267 261.128 325.835C261.44 325.355 262.064 324.731 262.472 324.395C259.736 322.163 256.952 317.675 255.512 313.499ZM252.584 313.523C251.144 317.819 248.36 322.307 245.456 324.563C245.888 324.875 246.488 325.523 246.824 325.955C249.776 323.387 252.56 318.755 254.12 314.003L252.584 313.523ZM246.032 306.971C244.568 310.739 242.12 314.339 239.48 316.643C239.792 317.075 240.368 318.035 240.56 318.467C243.44 315.803 246.128 311.723 247.808 307.523L246.032 306.971ZM243.392 313.355V328.835H245.168V311.603V311.579L243.392 313.355ZM279.104 308.579C280.496 310.955 283.04 313.547 285.44 315.107C285.704 314.603 286.088 313.931 286.424 313.499C284.048 312.179 281.456 309.539 279.872 306.851H278.168C276.992 309.347 274.496 312.203 271.904 313.811C272.216 314.195 272.648 314.843 272.84 315.275C275.456 313.595 277.832 310.883 279.104 308.579ZM279.584 312.995C278.312 314.699 275.936 316.451 273.872 317.435C274.28 317.723 274.76 318.203 275.048 318.539C277.28 317.411 279.656 315.563 281.168 313.643L279.584 312.995ZM281.6 316.547C279.992 318.755 276.896 320.819 274.016 321.947C274.448 322.307 274.904 322.811 275.168 323.219C278.24 321.875 281.336 319.691 283.208 317.195L281.6 316.547ZM283.784 320.147C281.768 323.603 277.736 326.123 272.888 327.419C273.32 327.851 273.776 328.475 274.016 328.955C279.056 327.443 283.16 324.659 285.416 320.843L283.784 320.147ZM265.04 314.075V315.515H272.072V314.075H265.04ZM265.112 307.667V309.107H271.976V307.667H265.112ZM265.04 317.291V318.731H272.072V317.291H265.04ZM263.912 310.811V312.299H272.816V310.811H263.912ZM265.832 320.531V322.019H270.488V326.027H265.832V327.539H272.072V320.531H265.832ZM265.016 320.531V328.643H266.576V320.531H265.016Z" fill="white"/>
<path d="M253.112 307.139V328.907H254.888V307.139H253.112ZM246.32 312.923V314.699H261.872V312.923H246.32ZM255.512 313.499L254.048 313.931C255.608 318.515 258.32 323.267 261.128 325.835C261.44 325.355 262.064 324.731 262.472 324.395C259.736 322.163 256.952 317.675 255.512 313.499ZM252.584 313.523C251.144 317.819 248.36 322.307 245.456 324.563C245.888 324.875 246.488 325.523 246.824 325.955C249.776 323.387 252.56 318.755 254.12 314.003L252.584 313.523ZM246.032 306.971C244.568 310.739 242.12 314.339 239.48 316.643C239.792 317.075 240.368 318.035 240.56 318.467C243.44 315.803 246.128 311.723 247.808 307.523L246.032 306.971ZM243.392 313.355V328.835H245.168V311.603V311.579L243.392 313.355ZM279.104 308.579C280.496 310.955 283.04 313.547 285.44 315.107C285.704 314.603 286.088 313.931 286.424 313.499C284.048 312.179 281.456 309.539 279.872 306.851H278.168C276.992 309.347 274.496 312.203 271.904 313.811C272.216 314.195 272.648 314.843 272.84 315.275C275.456 313.595 277.832 310.883 279.104 308.579ZM279.584 312.995C278.312 314.699 275.936 316.451 273.872 317.435C274.28 317.723 274.76 318.203 275.048 318.539C277.28 317.411 279.656 315.563 281.168 313.643L279.584 312.995ZM281.6 316.547C279.992 318.755 276.896 320.819 274.016 321.947C274.448 322.307 274.904 322.811 275.168 323.219C278.24 321.875 281.336 319.691 283.208 317.195L281.6 316.547ZM283.784 320.147C281.768 323.603 277.736 326.123 272.888 327.419C273.32 327.851 273.776 328.475 274.016 328.955C279.056 327.443 283.16 324.659 285.416 320.843L283.784 320.147ZM265.04 314.075V315.515H272.072V314.075H265.04ZM265.112 307.667V309.107H271.976V307.667H265.112ZM265.04 317.291V318.731H272.072V317.291H265.04ZM263.912 310.811V312.299H272.816V310.811H263.912ZM265.832 320.531V322.019H270.488V326.027H265.832V327.539H272.072V320.531H265.832ZM265.016 320.531V328.643H266.576V320.531H265.016Z" fill="white"/>
<path d="M21.7812 142.145H21.9766C22.875 142.145 23.6237 142.027 24.2227 141.793C24.8281 141.552 25.3099 141.22 25.668 140.797C26.026 140.374 26.2832 139.876 26.4395 139.303C26.5957 138.73 26.6738 138.108 26.6738 137.438V134.986C26.6738 134.407 26.612 133.899 26.4883 133.463C26.3711 133.02 26.2018 132.652 25.9805 132.359C25.7656 132.06 25.515 131.835 25.2285 131.686C24.9486 131.536 24.6458 131.461 24.3203 131.461C23.9622 131.461 23.64 131.542 23.3535 131.705C23.0736 131.861 22.8359 132.079 22.6406 132.359C22.4518 132.633 22.3053 132.955 22.2012 133.326C22.1035 133.691 22.0547 134.081 22.0547 134.498C22.0547 134.889 22.1003 135.266 22.1914 135.631C22.2891 135.989 22.4323 136.308 22.6211 136.588C22.8099 136.868 23.0475 137.089 23.334 137.252C23.6204 137.415 23.9557 137.496 24.3398 137.496C24.7044 137.496 25.0397 137.428 25.3457 137.291C25.6517 137.148 25.9186 136.956 26.1465 136.715C26.3743 136.474 26.5534 136.204 26.6836 135.904C26.8138 135.605 26.8854 135.299 26.8984 134.986L27.7969 135.26C27.7969 135.755 27.6927 136.243 27.4844 136.725C27.2826 137.2 26.9993 137.636 26.6348 138.033C26.2767 138.424 25.8568 138.736 25.375 138.971C24.8997 139.205 24.3822 139.322 23.8223 139.322C23.1452 139.322 22.5462 139.195 22.0254 138.941C21.5111 138.681 21.0814 138.329 20.7363 137.887C20.3978 137.444 20.1439 136.936 19.9746 136.363C19.8053 135.79 19.7207 135.188 19.7207 134.557C19.7207 133.873 19.8249 133.232 20.0332 132.633C20.2415 132.034 20.5443 131.507 20.9414 131.051C21.3385 130.589 21.8203 130.23 22.3867 129.977C22.9596 129.716 23.6074 129.586 24.3301 129.586C25.0983 129.586 25.7721 129.736 26.3516 130.035C26.931 130.335 27.4193 130.748 27.8164 131.275C28.2135 131.803 28.513 132.415 28.7148 133.111C28.9167 133.808 29.0176 134.557 29.0176 135.357V136.188C29.0176 137.027 28.9427 137.838 28.793 138.619C28.6432 139.394 28.3991 140.113 28.0605 140.777C27.7285 141.435 27.2891 142.014 26.7422 142.516C26.2018 143.01 25.5378 143.398 24.75 143.678C23.9688 143.951 23.0508 144.088 21.9961 144.088H21.7812V142.145ZM31.4199 142.828C31.4199 142.464 31.5436 142.158 31.791 141.91C32.0384 141.656 32.3737 141.529 32.7969 141.529C33.2266 141.529 33.5618 141.656 33.8027 141.91C34.0501 142.158 34.1738 142.464 34.1738 142.828C34.1738 143.193 34.0501 143.499 33.8027 143.746C33.5618 143.993 33.2266 144.117 32.7969 144.117C32.3737 144.117 32.0384 143.993 31.791 143.746C31.5436 143.499 31.4199 143.193 31.4199 142.828ZM31.4297 134.508C31.4297 134.143 31.5534 133.837 31.8008 133.59C32.0482 133.336 32.3835 133.209 32.8066 133.209C33.2363 133.209 33.5716 133.336 33.8125 133.59C34.0599 133.837 34.1836 134.143 34.1836 134.508C34.1836 134.872 34.0599 135.178 33.8125 135.426C33.5716 135.673 33.2363 135.797 32.8066 135.797C32.3835 135.797 32.0482 135.673 31.8008 135.426C31.5534 135.178 31.4297 134.872 31.4297 134.508ZM45.7949 135.699V138.023C45.7949 139.137 45.6842 140.087 45.4629 140.875C45.248 141.656 44.9355 142.291 44.5254 142.779C44.1152 143.268 43.6237 143.626 43.0508 143.854C42.4844 144.081 41.8496 144.195 41.1465 144.195C40.5866 144.195 40.0658 144.124 39.584 143.98C39.1087 143.837 38.679 143.613 38.2949 143.307C37.9108 143.001 37.582 142.607 37.3086 142.125C37.0417 141.637 36.8333 141.054 36.6836 140.377C36.5404 139.7 36.4688 138.915 36.4688 138.023V135.699C36.4688 134.579 36.5794 133.635 36.8008 132.867C37.0221 132.092 37.3379 131.464 37.748 130.982C38.1582 130.494 38.6465 130.139 39.2129 129.918C39.7858 129.697 40.4238 129.586 41.127 129.586C41.6934 129.586 42.2142 129.658 42.6895 129.801C43.1712 129.938 43.6009 130.156 43.9785 130.455C44.3626 130.755 44.6882 131.145 44.9551 131.627C45.2285 132.102 45.4368 132.678 45.5801 133.355C45.7233 134.026 45.7949 134.807 45.7949 135.699ZM43.4414 138.355V135.348C43.4414 134.781 43.4089 134.283 43.3438 133.854C43.2786 133.417 43.181 133.049 43.0508 132.75C42.9271 132.444 42.7708 132.197 42.582 132.008C42.3932 131.812 42.1784 131.673 41.9375 131.588C41.6966 131.497 41.4264 131.451 41.127 131.451C40.7624 131.451 40.4368 131.523 40.1504 131.666C39.8639 131.803 39.623 132.024 39.4277 132.33C39.2324 132.636 39.0827 133.04 38.9785 133.541C38.8809 134.036 38.832 134.638 38.832 135.348V138.355C38.832 138.928 38.8646 139.433 38.9297 139.869C38.9948 140.305 39.0924 140.68 39.2227 140.992C39.3529 141.298 39.5091 141.552 39.6914 141.754C39.8802 141.949 40.0951 142.092 40.3359 142.184C40.5833 142.275 40.8535 142.32 41.1465 142.32C41.5176 142.32 41.8464 142.249 42.1328 142.105C42.4193 141.962 42.6602 141.734 42.8555 141.422C43.0508 141.103 43.1973 140.689 43.2949 140.182C43.3926 139.674 43.4414 139.065 43.4414 138.355ZM57.1621 135.699V138.023C57.1621 139.137 57.0514 140.087 56.8301 140.875C56.6152 141.656 56.3027 142.291 55.8926 142.779C55.4824 143.268 54.9909 143.626 54.418 143.854C53.8516 144.081 53.2168 144.195 52.5137 144.195C51.9538 144.195 51.4329 144.124 50.9512 143.98C50.4759 143.837 50.0462 143.613 49.6621 143.307C49.278 143.001 48.9492 142.607 48.6758 142.125C48.4089 141.637 48.2005 141.054 48.0508 140.377C47.9076 139.7 47.8359 138.915 47.8359 138.023V135.699C47.8359 134.579 47.9466 133.635 48.168 132.867C48.3893 132.092 48.7051 131.464 49.1152 130.982C49.5254 130.494 50.0137 130.139 50.5801 129.918C51.153 129.697 51.791 129.586 52.4941 129.586C53.0605 129.586 53.5814 129.658 54.0566 129.801C54.5384 129.938 54.9681 130.156 55.3457 130.455C55.7298 130.755 56.0553 131.145 56.3223 131.627C56.5957 132.102 56.804 132.678 56.9473 133.355C57.0905 134.026 57.1621 134.807 57.1621 135.699ZM54.8086 138.355V135.348C54.8086 134.781 54.776 134.283 54.7109 133.854C54.6458 133.417 54.5482 133.049 54.418 132.75C54.2943 132.444 54.138 132.197 53.9492 132.008C53.7604 131.812 53.5456 131.673 53.3047 131.588C53.0638 131.497 52.7936 131.451 52.4941 131.451C52.1296 131.451 51.804 131.523 51.5176 131.666C51.2311 131.803 50.9902 132.024 50.7949 132.33C50.5996 132.636 50.4499 133.04 50.3457 133.541C50.248 134.036 50.1992 134.638 50.1992 135.348V138.355C50.1992 138.928 50.2318 139.433 50.2969 139.869C50.362 140.305 50.4596 140.68 50.5898 140.992C50.7201 141.298 50.8763 141.552 51.0586 141.754C51.2474 141.949 51.4622 142.092 51.7031 142.184C51.9505 142.275 52.2207 142.32 52.5137 142.32C52.8848 142.32 53.2135 142.249 53.5 142.105C53.7865 141.962 54.0273 141.734 54.2227 141.422C54.418 141.103 54.5645 140.689 54.6621 140.182C54.7598 139.674 54.8086 139.065 54.8086 138.355ZM38.9 149.4H38.08V169.4H38.9V149.4ZM20.6289 175.732V190H18.2754V178.525L14.7891 179.707V177.764L20.3457 175.732H20.6289ZM35.3652 184.932V186.807H25.1113L25.0332 185.391L31.166 175.781H33.0508L31.0098 179.277L27.4844 184.932H35.3652ZM33.5879 175.781V190H31.2344V175.781H33.5879ZM37.1035 188.828C37.1035 188.464 37.2272 188.158 37.4746 187.91C37.722 187.656 38.0573 187.529 38.4805 187.529C38.9102 187.529 39.2454 187.656 39.4863 187.91C39.7337 188.158 39.8574 188.464 39.8574 188.828C39.8574 189.193 39.7337 189.499 39.4863 189.746C39.2454 189.993 38.9102 190.117 38.4805 190.117C38.0573 190.117 37.722 189.993 37.4746 189.746C37.2272 189.499 37.1035 189.193 37.1035 188.828ZM37.1133 180.508C37.1133 180.143 37.237 179.837 37.4844 179.59C37.7318 179.336 38.0671 179.209 38.4902 179.209C38.9199 179.209 39.2552 179.336 39.4961 179.59C39.7435 179.837 39.8672 180.143 39.8672 180.508C39.8672 180.872 39.7435 181.178 39.4961 181.426C39.2552 181.673 38.9199 181.797 38.4902 181.797C38.0671 181.797 37.7318 181.673 37.4844 181.426C37.237 181.178 37.1133 180.872 37.1133 180.508ZM51.4785 181.699V184.023C51.4785 185.137 51.3678 186.087 51.1465 186.875C50.9316 187.656 50.6191 188.291 50.209 188.779C49.7988 189.268 49.3073 189.626 48.7344 189.854C48.168 190.081 47.5332 190.195 46.8301 190.195C46.2702 190.195 45.7493 190.124 45.2676 189.98C44.7923 189.837 44.3626 189.613 43.9785 189.307C43.5944 189.001 43.2656 188.607 42.9922 188.125C42.7253 187.637 42.5169 187.054 42.3672 186.377C42.224 185.7 42.1523 184.915 42.1523 184.023V181.699C42.1523 180.579 42.263 179.635 42.4844 178.867C42.7057 178.092 43.0215 177.464 43.4316 176.982C43.8418 176.494 44.3301 176.139 44.8965 175.918C45.4694 175.697 46.1074 175.586 46.8105 175.586C47.377 175.586 47.8978 175.658 48.373 175.801C48.8548 175.938 49.2845 176.156 49.6621 176.455C50.0462 176.755 50.3717 177.145 50.6387 177.627C50.9121 178.102 51.1204 178.678 51.2637 179.355C51.4069 180.026 51.4785 180.807 51.4785 181.699ZM49.125 184.355V181.348C49.125 180.781 49.0924 180.283 49.0273 179.854C48.9622 179.417 48.8646 179.049 48.7344 178.75C48.6107 178.444 48.4544 178.197 48.2656 178.008C48.0768 177.812 47.862 177.673 47.6211 177.588C47.3802 177.497 47.11 177.451 46.8105 177.451C46.446 177.451 46.1204 177.523 45.834 177.666C45.5475 177.803 45.3066 178.024 45.1113 178.33C44.916 178.636 44.7663 179.04 44.6621 179.541C44.5645 180.036 44.5156 180.638 44.5156 181.348V184.355C44.5156 184.928 44.5482 185.433 44.6133 185.869C44.6784 186.305 44.776 186.68 44.9062 186.992C45.0365 187.298 45.1927 187.552 45.375 187.754C45.5638 187.949 45.7786 188.092 46.0195 188.184C46.2669 188.275 46.5371 188.32 46.8301 188.32C47.2012 188.32 47.5299 188.249 47.8164 188.105C48.1029 187.962 48.3438 187.734 48.5391 187.422C48.7344 187.103 48.8809 186.689 48.9785 186.182C49.0762 185.674 49.125 185.065 49.125 184.355ZM62.8457 181.699V184.023C62.8457 185.137 62.735 186.087 62.5137 186.875C62.2988 187.656 61.9863 188.291 61.5762 188.779C61.166 189.268 60.6745 189.626 60.1016 189.854C59.5352 190.081 58.9004 190.195 58.1973 190.195C57.6374 190.195 57.1165 190.124 56.6348 189.98C56.1595 189.837 55.7298 189.613 55.3457 189.307C54.9616 189.001 54.6328 188.607 54.3594 188.125C54.0924 187.637 53.8841 187.054 53.7344 186.377C53.5911 185.7 53.5195 184.915 53.5195 184.023V181.699C53.5195 180.579 53.6302 179.635 53.8516 178.867C54.0729 178.092 54.3887 177.464 54.7988 176.982C55.209 176.494 55.6973 176.139 56.2637 175.918C56.8366 175.697 57.4746 175.586 58.1777 175.586C58.7441 175.586 59.265 175.658 59.7402 175.801C60.222 175.938 60.6517 176.156 61.0293 176.455C61.4134 176.755 61.7389 177.145 62.0059 177.627C62.2793 178.102 62.4876 178.678 62.6309 179.355C62.7741 180.026 62.8457 180.807 62.8457 181.699ZM60.4922 184.355V181.348C60.4922 180.781 60.4596 180.283 60.3945 179.854C60.3294 179.417 60.2318 179.049 60.1016 178.75C59.9779 178.444 59.8216 178.197 59.6328 178.008C59.444 177.812 59.2292 177.673 58.9883 177.588C58.7474 177.497 58.4772 177.451 58.1777 177.451C57.8132 177.451 57.4876 177.523 57.2012 177.666C56.9147 177.803 56.6738 178.024 56.4785 178.33C56.2832 178.636 56.1335 179.04 56.0293 179.541C55.9316 180.036 55.8828 180.638 55.8828 181.348V184.355C55.8828 184.928 55.9154 185.433 55.9805 185.869C56.0456 186.305 56.1432 186.68 56.2734 186.992C56.4036 187.298 56.5599 187.552 56.7422 187.754C56.931 187.949 57.1458 188.092 57.3867 188.184C57.6341 188.275 57.9043 188.32 58.1973 188.32C58.5684 188.32 58.8971 188.249 59.1836 188.105C59.4701 187.962 59.7109 187.734 59.9062 187.422C60.1016 187.103 60.248 186.689 60.3457 186.182C60.4434 185.674 60.4922 185.065 60.4922 184.355Z" fill="white"/>
<path d="M21.1289 277.732V292H18.7754V280.525L15.2891 281.707V279.764L20.8457 277.732H21.1289ZM28.541 285.389L26.666 284.93L27.4375 277.781H35.1035V279.773H29.3906L29 283.26C29.2214 283.13 29.5273 283.003 29.918 282.879C30.3086 282.749 30.7546 282.684 31.2559 282.684C31.9264 282.684 32.5254 282.794 33.0527 283.016C33.5866 283.23 34.0391 283.546 34.4102 283.963C34.7812 284.373 35.0645 284.874 35.2598 285.467C35.4551 286.053 35.5527 286.714 35.5527 287.449C35.5527 288.107 35.4551 288.722 35.2598 289.295C35.071 289.868 34.7845 290.372 34.4004 290.809C34.0163 291.245 33.5312 291.587 32.9453 291.834C32.3659 292.075 31.679 292.195 30.8848 292.195C30.2923 292.195 29.7227 292.111 29.1758 291.941C28.6354 291.766 28.1504 291.508 27.7207 291.17C27.291 290.825 26.946 290.402 26.6855 289.9C26.4251 289.393 26.2754 288.81 26.2363 288.152H28.541C28.5996 288.615 28.7266 289.008 28.9219 289.334C29.1237 289.653 29.3906 289.897 29.7227 290.066C30.0547 290.236 30.4388 290.32 30.875 290.32C31.2721 290.32 31.6139 290.252 31.9004 290.115C32.1868 289.972 32.4245 289.77 32.6133 289.51C32.8086 289.243 32.9518 288.93 33.043 288.572C33.1406 288.214 33.1895 287.817 33.1895 287.381C33.1895 286.964 33.1341 286.583 33.0234 286.238C32.9193 285.893 32.7598 285.594 32.5449 285.34C32.3366 285.086 32.0729 284.891 31.7539 284.754C31.4349 284.611 31.0671 284.539 30.6504 284.539C30.0905 284.539 29.6608 284.62 29.3613 284.783C29.0684 284.946 28.7949 285.148 28.541 285.389ZM37.6035 290.828C37.6035 290.464 37.7272 290.158 37.9746 289.91C38.222 289.656 38.5573 289.529 38.9805 289.529C39.4102 289.529 39.7454 289.656 39.9863 289.91C40.2337 290.158 40.3574 290.464 40.3574 290.828C40.3574 291.193 40.2337 291.499 39.9863 291.746C39.7454 291.993 39.4102 292.117 38.9805 292.117C38.5573 292.117 38.222 291.993 37.9746 291.746C37.7272 291.499 37.6035 291.193 37.6035 290.828ZM37.6133 282.508C37.6133 282.143 37.737 281.837 37.9844 281.59C38.2318 281.336 38.5671 281.209 38.9902 281.209C39.4199 281.209 39.7552 281.336 39.9961 281.59C40.2435 281.837 40.3672 282.143 40.3672 282.508C40.3672 282.872 40.2435 283.178 39.9961 283.426C39.7552 283.673 39.4199 283.797 38.9902 283.797C38.5671 283.797 38.2318 283.673 37.9844 283.426C37.737 283.178 37.6133 282.872 37.6133 282.508ZM51.9785 283.699V286.023C51.9785 287.137 51.8678 288.087 51.6465 288.875C51.4316 289.656 51.1191 290.291 50.709 290.779C50.2988 291.268 49.8073 291.626 49.2344 291.854C48.668 292.081 48.0332 292.195 47.3301 292.195C46.7702 292.195 46.2493 292.124 45.7676 291.98C45.2923 291.837 44.8626 291.613 44.4785 291.307C44.0944 291.001 43.7656 290.607 43.4922 290.125C43.2253 289.637 43.0169 289.054 42.8672 288.377C42.724 287.7 42.6523 286.915 42.6523 286.023V283.699C42.6523 282.579 42.763 281.635 42.9844 280.867C43.2057 280.092 43.5215 279.464 43.9316 278.982C44.3418 278.494 44.8301 278.139 45.3965 277.918C45.9694 277.697 46.6074 277.586 47.3105 277.586C47.877 277.586 48.3978 277.658 48.873 277.801C49.3548 277.938 49.7845 278.156 50.1621 278.455C50.5462 278.755 50.8717 279.145 51.1387 279.627C51.4121 280.102 51.6204 280.678 51.7637 281.355C51.9069 282.026 51.9785 282.807 51.9785 283.699ZM49.625 286.355V283.348C49.625 282.781 49.5924 282.283 49.5273 281.854C49.4622 281.417 49.3646 281.049 49.2344 280.75C49.1107 280.444 48.9544 280.197 48.7656 280.008C48.5768 279.812 48.362 279.673 48.1211 279.588C47.8802 279.497 47.61 279.451 47.3105 279.451C46.946 279.451 46.6204 279.523 46.334 279.666C46.0475 279.803 45.8066 280.024 45.6113 280.33C45.416 280.636 45.2663 281.04 45.1621 281.541C45.0645 282.036 45.0156 282.638 45.0156 283.348V286.355C45.0156 286.928 45.0482 287.433 45.1133 287.869C45.1784 288.305 45.276 288.68 45.4062 288.992C45.5365 289.298 45.6927 289.552 45.875 289.754C46.0638 289.949 46.2786 290.092 46.5195 290.184C46.7669 290.275 47.0371 290.32 47.3301 290.32C47.7012 290.32 48.0299 290.249 48.3164 290.105C48.6029 289.962 48.8438 289.734 49.0391 289.422C49.2344 289.103 49.3809 288.689 49.4785 288.182C49.5762 287.674 49.625 287.065 49.625 286.355ZM63.3457 283.699V286.023C63.3457 287.137 63.235 288.087 63.0137 288.875C62.7988 289.656 62.4863 290.291 62.0762 290.779C61.666 291.268 61.1745 291.626 60.6016 291.854C60.0352 292.081 59.4004 292.195 58.6973 292.195C58.1374 292.195 57.6165 292.124 57.1348 291.98C56.6595 291.837 56.2298 291.613 55.8457 291.307C55.4616 291.001 55.1328 290.607 54.8594 290.125C54.5924 289.637 54.3841 289.054 54.2344 288.377C54.0911 287.7 54.0195 286.915 54.0195 286.023V283.699C54.0195 282.579 54.1302 281.635 54.3516 280.867C54.5729 280.092 54.8887 279.464 55.2988 278.982C55.709 278.494 56.1973 278.139 56.7637 277.918C57.3366 277.697 57.9746 277.586 58.6777 277.586C59.2441 277.586 59.765 277.658 60.2402 277.801C60.722 277.938 61.1517 278.156 61.5293 278.455C61.9134 278.755 62.2389 279.145 62.5059 279.627C62.7793 280.102 62.9876 280.678 63.1309 281.355C63.2741 282.026 63.3457 282.807 63.3457 283.699ZM60.9922 286.355V283.348C60.9922 282.781 60.9596 282.283 60.8945 281.854C60.8294 281.417 60.7318 281.049 60.6016 280.75C60.4779 280.444 60.3216 280.197 60.1328 280.008C59.944 279.812 59.7292 279.673 59.4883 279.588C59.2474 279.497 58.9772 279.451 58.6777 279.451C58.3132 279.451 57.9876 279.523 57.7012 279.666C57.4147 279.803 57.1738 280.024 56.9785 280.33C56.7832 280.636 56.6335 281.04 56.5293 281.541C56.4316 282.036 56.3828 282.638 56.3828 283.348V286.355C56.3828 286.928 56.4154 287.433 56.4805 287.869C56.5456 288.305 56.6432 288.68 56.7734 288.992C56.9036 289.298 57.0599 289.552 57.2422 289.754C57.431 289.949 57.6458 290.092 57.8867 290.184C58.1341 290.275 58.4043 290.32 58.6973 290.32C59.0684 290.32 59.3971 290.249 59.6836 290.105C59.9701 289.962 60.2109 289.734 60.4062 289.422C60.6016 289.103 60.748 288.689 60.8457 288.182C60.9434 287.674 60.9922 287.065 60.9922 286.355ZM39.4 297.4H38.58V317.4H39.4V297.4ZM24.2344 336.125V338H14.7031V336.389L19.332 331.34C19.8398 330.767 20.2402 330.272 20.5332 329.855C20.8262 329.439 21.0312 329.064 21.1484 328.732C21.2721 328.394 21.334 328.065 21.334 327.746C21.334 327.297 21.2493 326.903 21.0801 326.564C20.9173 326.219 20.6764 325.949 20.3574 325.754C20.0384 325.552 19.651 325.451 19.1953 325.451C18.668 325.451 18.2253 325.565 17.8672 325.793C17.5091 326.021 17.2389 326.337 17.0566 326.74C16.8743 327.137 16.7832 327.593 16.7832 328.107H14.4297C14.4297 327.281 14.6185 326.525 14.9961 325.842C15.3737 325.152 15.9206 324.605 16.6367 324.201C17.3529 323.791 18.2155 323.586 19.2246 323.586C20.1751 323.586 20.9824 323.745 21.6465 324.064C22.3105 324.383 22.8151 324.836 23.1602 325.422C23.5117 326.008 23.6875 326.701 23.6875 327.502C23.6875 327.945 23.6159 328.384 23.4727 328.82C23.3294 329.257 23.1243 329.693 22.8574 330.129C22.597 330.559 22.2878 330.992 21.9297 331.428C21.5716 331.857 21.1777 332.294 20.748 332.736L17.6719 336.125H24.2344ZM32.4961 323.732V338H30.1426V326.525L26.6562 327.707V325.764L32.2129 323.732H32.4961ZM37.6035 336.828C37.6035 336.464 37.7272 336.158 37.9746 335.91C38.222 335.656 38.5573 335.529 38.9805 335.529C39.4102 335.529 39.7454 335.656 39.9863 335.91C40.2337 336.158 40.3574 336.464 40.3574 336.828C40.3574 337.193 40.2337 337.499 39.9863 337.746C39.7454 337.993 39.4102 338.117 38.9805 338.117C38.5573 338.117 38.222 337.993 37.9746 337.746C37.7272 337.499 37.6035 337.193 37.6035 336.828ZM37.6133 328.508C37.6133 328.143 37.737 327.837 37.9844 327.59C38.2318 327.336 38.5671 327.209 38.9902 327.209C39.4199 327.209 39.7552 327.336 39.9961 327.59C40.2435 327.837 40.3672 328.143 40.3672 328.508C40.3672 328.872 40.2435 329.178 39.9961 329.426C39.7552 329.673 39.4199 329.797 38.9902 329.797C38.5671 329.797 38.2318 329.673 37.9844 329.426C37.737 329.178 37.6133 328.872 37.6133 328.508ZM51.9785 329.699V332.023C51.9785 333.137 51.8678 334.087 51.6465 334.875C51.4316 335.656 51.1191 336.291 50.709 336.779C50.2988 337.268 49.8073 337.626 49.2344 337.854C48.668 338.081 48.0332 338.195 47.3301 338.195C46.7702 338.195 46.2493 338.124 45.7676 337.98C45.2923 337.837 44.8626 337.613 44.4785 337.307C44.0944 337.001 43.7656 336.607 43.4922 336.125C43.2253 335.637 43.0169 335.054 42.8672 334.377C42.724 333.7 42.6523 332.915 42.6523 332.023V329.699C42.6523 328.579 42.763 327.635 42.9844 326.867C43.2057 326.092 43.5215 325.464 43.9316 324.982C44.3418 324.494 44.8301 324.139 45.3965 323.918C45.9694 323.697 46.6074 323.586 47.3105 323.586C47.877 323.586 48.3978 323.658 48.873 323.801C49.3548 323.938 49.7845 324.156 50.1621 324.455C50.5462 324.755 50.8717 325.145 51.1387 325.627C51.4121 326.102 51.6204 326.678 51.7637 327.355C51.9069 328.026 51.9785 328.807 51.9785 329.699ZM49.625 332.355V329.348C49.625 328.781 49.5924 328.283 49.5273 327.854C49.4622 327.417 49.3646 327.049 49.2344 326.75C49.1107 326.444 48.9544 326.197 48.7656 326.008C48.5768 325.812 48.362 325.673 48.1211 325.588C47.8802 325.497 47.61 325.451 47.3105 325.451C46.946 325.451 46.6204 325.523 46.334 325.666C46.0475 325.803 45.8066 326.024 45.6113 326.33C45.416 326.636 45.2663 327.04 45.1621 327.541C45.0645 328.036 45.0156 328.638 45.0156 329.348V332.355C45.0156 332.928 45.0482 333.433 45.1133 333.869C45.1784 334.305 45.276 334.68 45.4062 334.992C45.5365 335.298 45.6927 335.552 45.875 335.754C46.0638 335.949 46.2786 336.092 46.5195 336.184C46.7669 336.275 47.0371 336.32 47.3301 336.32C47.7012 336.32 48.0299 336.249 48.3164 336.105C48.6029 335.962 48.8438 335.734 49.0391 335.422C49.2344 335.103 49.3809 334.689 49.4785 334.182C49.5762 333.674 49.625 333.065 49.625 332.355ZM63.3457 329.699V332.023C63.3457 333.137 63.235 334.087 63.0137 334.875C62.7988 335.656 62.4863 336.291 62.0762 336.779C61.666 337.268 61.1745 337.626 60.6016 337.854C60.0352 338.081 59.4004 338.195 58.6973 338.195C58.1374 338.195 57.6165 338.124 57.1348 337.98C56.6595 337.837 56.2298 337.613 55.8457 337.307C55.4616 337.001 55.1328 336.607 54.8594 336.125C54.5924 335.637 54.3841 335.054 54.2344 334.377C54.0911 333.7 54.0195 332.915 54.0195 332.023V329.699C54.0195 328.579 54.1302 327.635 54.3516 326.867C54.5729 326.092 54.8887 325.464 55.2988 324.982C55.709 324.494 56.1973 324.139 56.7637 323.918C57.3366 323.697 57.9746 323.586 58.6777 323.586C59.2441 323.586 59.765 323.658 60.2402 323.801C60.722 323.938 61.1517 324.156 61.5293 324.455C61.9134 324.755 62.2389 325.145 62.5059 325.627C62.7793 326.102 62.9876 326.678 63.1309 327.355C63.2741 328.026 63.3457 328.807 63.3457 329.699ZM60.9922 332.355V329.348C60.9922 328.781 60.9596 328.283 60.8945 327.854C60.8294 327.417 60.7318 327.049 60.6016 326.75C60.4779 326.444 60.3216 326.197 60.1328 326.008C59.944 325.812 59.7292 325.673 59.4883 325.588C59.2474 325.497 58.9772 325.451 58.6777 325.451C58.3132 325.451 57.9876 325.523 57.7012 325.666C57.4147 325.803 57.1738 326.024 56.9785 326.33C56.7832 326.636 56.6335 327.04 56.5293 327.541C56.4316 328.036 56.3828 328.638 56.3828 329.348V332.355C56.3828 332.928 56.4154 333.433 56.4805 333.869C56.5456 334.305 56.6432 334.68 56.7734 334.992C56.9036 335.298 57.0599 335.552 57.2422 335.754C57.431 335.949 57.6458 336.092 57.8867 336.184C58.1341 336.275 58.4043 336.32 58.6973 336.32C59.0684 336.32 59.3971 336.249 59.6836 336.105C59.9701 335.962 60.2109 335.734 60.4062 335.422C60.6016 335.103 60.748 334.689 60.8457 334.182C60.9434 333.674 60.9922 333.065 60.9922 332.355Z" fill="white"/>
<line x1="0.942383" y1="1" x2="604" y2="1" stroke="white" stroke-width="2"/>
<line x1="0.942383" y1="91.7754" x2="604" y2="91.7754" stroke="white" stroke-width="2"/>
<line x1="0.942383" y1="236.822" x2="604" y2="236.822" stroke="white" stroke-width="2"/>
<line x1="0.942383" y1="381.868" x2="604" y2="381.868" stroke="white" stroke-width="2"/>
<line y1="-1" x2="381.001" y2="-1" transform="matrix(0.00246211 0.999997 -0.999995 0.00303189 75.3822 2)" stroke="white" stroke-width="2"/>
<line y1="-1" x2="381.001" y2="-1" transform="matrix(0.00246211 0.999997 -0.999995 0.00303189 150.764 2)" stroke="white" stroke-width="2"/>
<line y1="-1" x2="381.001" y2="-1" transform="matrix(0.00246211 0.999997 -0.999995 0.00303189 226.147 2)" stroke="white" stroke-width="2"/>
<line y1="-1" x2="381.001" y2="-1" transform="matrix(0.00246211 0.999997 -0.999995 0.00303189 301.529 2)" stroke="white" stroke-width="2"/>
<line y1="-1" x2="381.001" y2="-1" transform="matrix(0.00246211 0.999997 -0.999995 0.00303189 376.911 2)" stroke="white" stroke-width="2"/>
<line y1="-1" x2="381.001" y2="-1" transform="matrix(0.00246211 0.999997 -0.999995 0.00303189 452.293 2)" stroke="white" stroke-width="2"/>
<line y1="-1" x2="381.001" y2="-1" transform="matrix(0.00246211 0.999997 -0.999995 0.00303189 527.676 2)" stroke="white" stroke-width="2"/>
<line y1="-1" x2="381.001" y2="-1" transform="matrix(0.00240121 0.999997 -0.999995 0.00310878 0 2)" stroke="white" stroke-width="2"/>
<line y1="-1" x2="381.001" y2="-1" transform="matrix(0.00246211 0.999997 -0.999995 0.00303189 602.115 2)" stroke="white" stroke-width="2"/>
<path d="M158.096 398.792C157.088 402.08 155.384 405.272 153.32 407.264C153.776 407.528 154.592 408.056 154.976 408.368C156.968 406.184 158.84 402.8 159.968 399.224L158.096 398.792ZM158 402.08L157.112 403.832H172.88V402.08H158ZM153.272 409.88V411.68H174.728V409.88H153.272ZM163.064 402.824V420.944H164.936V402.824H163.064ZM194.912 399.176V420.944H196.688V399.176H194.912ZM188.12 404.96V406.736H203.672V404.96H188.12ZM197.312 405.536L195.848 405.968C197.408 410.552 200.12 415.304 202.928 417.872C203.24 417.392 203.864 416.768 204.272 416.432C201.536 414.2 198.752 409.712 197.312 405.536ZM194.384 405.56C192.944 409.856 190.16 414.344 187.256 416.6C187.688 416.912 188.288 417.56 188.624 417.992C191.576 415.424 194.36 410.792 195.92 406.04L194.384 405.56ZM187.832 399.008C186.368 402.776 183.92 406.376 181.28 408.68C181.592 409.112 182.168 410.072 182.36 410.504C185.24 407.84 187.928 403.76 189.608 399.56L187.832 399.008ZM185.192 405.392V420.872H186.968V403.64V403.616L185.192 405.392ZM219.704 401.72V403.304H231.704V401.72H219.704ZM218.672 406.376V407.984H232.736V406.376H218.672ZM218.792 410.72V412.328H232.472V410.72H218.792ZM224.744 398.84V407.36H226.52V398.84H224.744ZM227.912 407.744V418.76C227.912 419.12 227.792 419.216 227.384 419.24C227 419.264 225.656 419.264 224.168 419.216C224.432 419.696 224.72 420.416 224.792 420.896C226.712 420.896 227.936 420.872 228.68 420.608C229.424 420.344 229.664 419.816 229.664 418.784V407.744H227.912ZM220.256 414.008C221.48 415.256 222.776 417.056 223.304 418.232L224.864 417.272C224.288 416.096 222.944 414.392 221.696 413.144L220.256 414.008ZM212.264 400.424V402.056H216.584V414.56H212.264V416.192H218.264V400.424H212.264ZM212.336 407.408V409.016H217.376V407.408H212.336ZM211.4 400.424V418.16H213.104V400.424H211.4ZM249.632 409.496V411.152H258.92V409.496H249.632ZM242.024 405.08V406.784H248.432V405.08H242.024ZM242.024 409.688V411.392H248.648V409.688H242.024ZM251.84 399.848V401.456H257.48V399.848H251.84ZM258.56 409.496V409.808C257.048 414.992 252.728 418.136 247.784 419.384C248.144 419.792 248.576 420.512 248.768 420.968C254.096 419.408 258.584 416.048 260.384 409.88L259.208 409.424L258.896 409.496H258.56ZM252.2 411.056L250.64 411.488C252.368 416.168 255.68 419.432 260.432 420.896C260.696 420.416 261.2 419.696 261.632 419.336C257.048 418.112 253.76 415.16 252.2 411.056ZM241.184 400.664V420.896H242.888V401.216L241.184 400.664ZM239.192 415.64L239.504 417.416C242.144 416.936 245.84 416.264 249.344 415.616L249.272 413.96C245.576 414.608 241.712 415.256 239.192 415.64ZM251.024 399.848V403.256C251.024 404.864 250.736 406.616 248.552 407.936C248.912 408.176 249.56 408.824 249.8 409.16C252.224 407.648 252.704 405.272 252.704 403.304V399.848H251.024ZM247.856 398.864C246.416 399.68 243.824 400.568 241.544 401.144C241.784 401.504 242.048 402.104 242.144 402.488C244.592 401.936 247.424 401.12 249.392 400.136L247.856 398.864ZM256.472 399.848V405.68C256.472 407.024 256.616 407.432 256.952 407.72C257.288 408.032 257.84 408.152 258.32 408.152C258.584 408.152 259.208 408.152 259.544 408.152C259.928 408.152 260.408 408.08 260.672 407.912C261.008 407.768 261.248 407.504 261.392 407.12C261.512 406.712 261.584 405.656 261.632 404.696C261.176 404.552 260.576 404.288 260.264 403.976C260.24 404.96 260.216 405.728 260.144 406.064C260.096 406.352 260 406.544 259.904 406.592C259.808 406.664 259.592 406.688 259.376 406.688C259.184 406.688 258.848 406.688 258.704 406.688C258.512 406.688 258.392 406.664 258.32 406.592C258.2 406.496 258.176 406.232 258.176 405.776V399.848H256.472ZM286.496 401.844V419H284.328V404.551L279.957 406.145V404.188L286.156 401.844H286.496ZM309.202 413.258V415.039H296.874V413.762L304.515 401.938H306.284L304.386 405.359L299.335 413.258H309.202ZM306.823 401.938V419H304.655V401.938H306.823ZM316.112 417.852C316.112 417.484 316.225 417.176 316.452 416.926C316.686 416.668 317.022 416.539 317.459 416.539C317.897 416.539 318.229 416.668 318.455 416.926C318.69 417.176 318.807 417.484 318.807 417.852C318.807 418.211 318.69 418.516 318.455 418.766C318.229 419.016 317.897 419.141 317.459 419.141C317.022 419.141 316.686 419.016 316.452 418.766C316.225 418.516 316.112 418.211 316.112 417.852ZM316.123 407.504C316.123 407.137 316.237 406.828 316.463 406.578C316.698 406.32 317.034 406.191 317.471 406.191C317.909 406.191 318.241 406.32 318.467 406.578C318.702 406.828 318.819 407.137 318.819 407.504C318.819 407.863 318.702 408.168 318.467 408.418C318.241 408.668 317.909 408.793 317.471 408.793C317.034 408.793 316.698 408.668 316.463 408.418C316.237 408.168 316.123 407.863 316.123 407.504ZM337.295 409.109V411.711C337.295 413.109 337.17 414.289 336.92 415.25C336.67 416.211 336.31 416.984 335.841 417.57C335.373 418.156 334.806 418.582 334.142 418.848C333.486 419.105 332.744 419.234 331.916 419.234C331.259 419.234 330.654 419.152 330.099 418.988C329.545 418.824 329.045 418.562 328.599 418.203C328.162 417.836 327.787 417.359 327.474 416.773C327.162 416.188 326.923 415.477 326.759 414.641C326.595 413.805 326.513 412.828 326.513 411.711V409.109C326.513 407.711 326.638 406.539 326.888 405.594C327.146 404.648 327.509 403.891 327.978 403.32C328.447 402.742 329.009 402.328 329.666 402.078C330.33 401.828 331.072 401.703 331.892 401.703C332.556 401.703 333.166 401.785 333.72 401.949C334.283 402.105 334.783 402.359 335.22 402.711C335.658 403.055 336.029 403.516 336.334 404.094C336.646 404.664 336.884 405.363 337.048 406.191C337.212 407.02 337.295 407.992 337.295 409.109ZM335.115 412.062V408.746C335.115 407.98 335.068 407.309 334.974 406.73C334.888 406.145 334.759 405.645 334.587 405.23C334.416 404.816 334.197 404.48 333.931 404.223C333.673 403.965 333.373 403.777 333.029 403.66C332.693 403.535 332.314 403.473 331.892 403.473C331.377 403.473 330.92 403.57 330.521 403.766C330.123 403.953 329.787 404.254 329.513 404.668C329.248 405.082 329.045 405.625 328.904 406.297C328.763 406.969 328.693 407.785 328.693 408.746V412.062C328.693 412.828 328.736 413.504 328.822 414.09C328.916 414.676 329.052 415.184 329.232 415.613C329.412 416.035 329.63 416.383 329.888 416.656C330.146 416.93 330.443 417.133 330.779 417.266C331.123 417.391 331.502 417.453 331.916 417.453C332.447 417.453 332.912 417.352 333.31 417.148C333.709 416.945 334.041 416.629 334.306 416.199C334.58 415.762 334.783 415.203 334.916 414.523C335.048 413.836 335.115 413.016 335.115 412.062ZM355.595 409.109V411.711C355.595 413.109 355.47 414.289 355.22 415.25C354.97 416.211 354.61 416.984 354.141 417.57C353.673 418.156 353.106 418.582 352.442 418.848C351.786 419.105 351.044 419.234 350.216 419.234C349.559 419.234 348.954 419.152 348.399 418.988C347.845 418.824 347.345 418.562 346.899 418.203C346.462 417.836 346.087 417.359 345.774 416.773C345.462 416.188 345.223 415.477 345.059 414.641C344.895 413.805 344.813 412.828 344.813 411.711V409.109C344.813 407.711 344.938 406.539 345.188 405.594C345.446 404.648 345.809 403.891 346.278 403.32C346.747 402.742 347.309 402.328 347.966 402.078C348.63 401.828 349.372 401.703 350.192 401.703C350.856 401.703 351.466 401.785 352.02 401.949C352.583 402.105 353.083 402.359 353.52 402.711C353.958 403.055 354.329 403.516 354.634 404.094C354.946 404.664 355.184 405.363 355.348 406.191C355.512 407.02 355.595 407.992 355.595 409.109ZM353.415 412.062V408.746C353.415 407.98 353.368 407.309 353.274 406.73C353.188 406.145 353.059 405.645 352.887 405.23C352.716 404.816 352.497 404.48 352.231 404.223C351.973 403.965 351.673 403.777 351.329 403.66C350.993 403.535 350.614 403.473 350.192 403.473C349.677 403.473 349.22 403.57 348.821 403.766C348.423 403.953 348.087 404.254 347.813 404.668C347.548 405.082 347.345 405.625 347.204 406.297C347.063 406.969 346.993 407.785 346.993 408.746V412.062C346.993 412.828 347.036 413.504 347.122 414.09C347.216 414.676 347.352 415.184 347.532 415.613C347.712 416.035 347.93 416.383 348.188 416.656C348.446 416.93 348.743 417.133 349.079 417.266C349.423 417.391 349.802 417.453 350.216 417.453C350.747 417.453 351.212 417.352 351.61 417.148C352.009 416.945 352.341 416.629 352.606 416.199C352.88 415.762 353.083 415.203 353.216 414.523C353.348 413.836 353.415 413.016 353.415 412.062ZM367.93 410.855V412.637H362.211V410.855H367.93ZM381.741 401.844V419H379.573V404.551L375.202 406.145V404.188L381.402 401.844H381.741ZM395.659 410.879L393.924 410.434L394.78 401.938H403.534V403.941H396.62L396.104 408.582C396.416 408.402 396.811 408.234 397.288 408.078C397.772 407.922 398.327 407.844 398.952 407.844C399.741 407.844 400.448 407.98 401.073 408.254C401.698 408.52 402.229 408.902 402.666 409.402C403.112 409.902 403.452 410.504 403.686 411.207C403.92 411.91 404.038 412.695 404.038 413.562C404.038 414.383 403.924 415.137 403.698 415.824C403.479 416.512 403.147 417.113 402.702 417.629C402.256 418.137 401.694 418.531 401.014 418.812C400.342 419.094 399.549 419.234 398.635 419.234C397.948 419.234 397.295 419.141 396.678 418.953C396.069 418.758 395.522 418.465 395.038 418.074C394.561 417.676 394.17 417.184 393.866 416.598C393.569 416.004 393.381 415.309 393.303 414.512H395.366C395.459 415.152 395.647 415.691 395.928 416.129C396.209 416.566 396.577 416.898 397.03 417.125C397.491 417.344 398.026 417.453 398.635 417.453C399.151 417.453 399.608 417.363 400.006 417.184C400.405 417.004 400.741 416.746 401.014 416.41C401.288 416.074 401.495 415.668 401.635 415.191C401.784 414.715 401.858 414.18 401.858 413.586C401.858 413.047 401.784 412.547 401.635 412.086C401.487 411.625 401.264 411.223 400.967 410.879C400.678 410.535 400.323 410.27 399.901 410.082C399.479 409.887 398.995 409.789 398.448 409.789C397.721 409.789 397.17 409.887 396.795 410.082C396.428 410.277 396.049 410.543 395.659 410.879ZM411.357 417.852C411.357 417.484 411.47 417.176 411.697 416.926C411.931 416.668 412.267 416.539 412.705 416.539C413.142 416.539 413.474 416.668 413.701 416.926C413.935 417.176 414.052 417.484 414.052 417.852C414.052 418.211 413.935 418.516 413.701 418.766C413.474 419.016 413.142 419.141 412.705 419.141C412.267 419.141 411.931 419.016 411.697 418.766C411.47 418.516 411.357 418.211 411.357 417.852ZM411.369 407.504C411.369 407.137 411.482 406.828 411.709 406.578C411.943 406.32 412.279 406.191 412.716 406.191C413.154 406.191 413.486 406.32 413.712 406.578C413.947 406.828 414.064 407.137 414.064 407.504C414.064 407.863 413.947 408.168 413.712 408.418C413.486 408.668 413.154 408.793 412.716 408.793C412.279 408.793 411.943 408.668 411.709 408.418C411.482 408.168 411.369 407.863 411.369 407.504ZM432.54 409.109V411.711C432.54 413.109 432.415 414.289 432.165 415.25C431.915 416.211 431.555 416.984 431.087 417.57C430.618 418.156 430.052 418.582 429.388 418.848C428.731 419.105 427.989 419.234 427.161 419.234C426.505 419.234 425.899 419.152 425.345 418.988C424.79 418.824 424.29 418.562 423.845 418.203C423.407 417.836 423.032 417.359 422.72 416.773C422.407 416.188 422.169 415.477 422.005 414.641C421.841 413.805 421.759 412.828 421.759 411.711V409.109C421.759 407.711 421.884 406.539 422.134 405.594C422.391 404.648 422.755 403.891 423.223 403.32C423.692 402.742 424.255 402.328 424.911 402.078C425.575 401.828 426.317 401.703 427.138 401.703C427.802 401.703 428.411 401.785 428.966 401.949C429.528 402.105 430.028 402.359 430.466 402.711C430.903 403.055 431.274 403.516 431.579 404.094C431.891 404.664 432.13 405.363 432.294 406.191C432.458 407.02 432.54 407.992 432.54 409.109ZM430.36 412.062V408.746C430.36 407.98 430.313 407.309 430.22 406.73C430.134 406.145 430.005 405.645 429.833 405.23C429.661 404.816 429.442 404.48 429.177 404.223C428.919 403.965 428.618 403.777 428.274 403.66C427.938 403.535 427.559 403.473 427.138 403.473C426.622 403.473 426.165 403.57 425.766 403.766C425.368 403.953 425.032 404.254 424.759 404.668C424.493 405.082 424.29 405.625 424.149 406.297C424.009 406.969 423.938 407.785 423.938 408.746V412.062C423.938 412.828 423.981 413.504 424.067 414.09C424.161 414.676 424.298 415.184 424.477 415.613C424.657 416.035 424.876 416.383 425.134 416.656C425.391 416.93 425.688 417.133 426.024 417.266C426.368 417.391 426.747 417.453 427.161 417.453C427.692 417.453 428.157 417.352 428.555 417.148C428.954 416.945 429.286 416.629 429.552 416.199C429.825 415.762 430.028 415.203 430.161 414.523C430.294 413.836 430.36 413.016 430.36 412.062ZM450.84 409.109V411.711C450.84 413.109 450.715 414.289 450.465 415.25C450.215 416.211 449.855 416.984 449.387 417.57C448.918 418.156 448.352 418.582 447.688 418.848C447.031 419.105 446.289 419.234 445.461 419.234C444.805 419.234 444.199 419.152 443.645 418.988C443.09 418.824 442.59 418.562 442.145 418.203C441.707 417.836 441.332 417.359 441.02 416.773C440.707 416.188 440.469 415.477 440.305 414.641C440.141 413.805 440.059 412.828 440.059 411.711V409.109C440.059 407.711 440.184 406.539 440.434 405.594C440.691 404.648 441.055 403.891 441.523 403.32C441.992 402.742 442.555 402.328 443.211 402.078C443.875 401.828 444.617 401.703 445.438 401.703C446.102 401.703 446.711 401.785 447.266 401.949C447.828 402.105 448.328 402.359 448.766 402.711C449.203 403.055 449.574 403.516 449.879 404.094C450.191 404.664 450.43 405.363 450.594 406.191C450.758 407.02 450.84 407.992 450.84 409.109ZM448.66 412.062V408.746C448.66 407.98 448.613 407.309 448.52 406.73C448.434 406.145 448.305 405.645 448.133 405.23C447.961 404.816 447.742 404.48 447.477 404.223C447.219 403.965 446.918 403.777 446.574 403.66C446.238 403.535 445.859 403.473 445.438 403.473C444.922 403.473 444.465 403.57 444.066 403.766C443.668 403.953 443.332 404.254 443.059 404.668C442.793 405.082 442.59 405.625 442.449 406.297C442.309 406.969 442.238 407.785 442.238 408.746V412.062C442.238 412.828 442.281 413.504 442.367 414.09C442.461 414.676 442.598 415.184 442.777 415.613C442.957 416.035 443.176 416.383 443.434 416.656C443.691 416.93 443.988 417.133 444.324 417.266C444.668 417.391 445.047 417.453 445.461 417.453C445.992 417.453 446.457 417.352 446.855 417.148C447.254 416.945 447.586 416.629 447.852 416.199C448.125 415.762 448.328 415.203 448.461 414.523C448.594 413.836 448.66 413.016 448.66 412.062Z" fill="white"/>
</svg>
